<svg width="203" height="61" viewBox="0 0 203 61" fill="none" xmlns="http://www.w3.org/2000/svg">
<g clip-path="url(#clip0_42_201)">
<path d="M28.7917 17.3627V14.5956C27.0854 14.0917 26.0106 13.9516 25.4667 12.8665C24.9227 11.779 25.5688 11.0395 26.3417 9.6946L23.9821 7.73831C22.3706 8.37269 21.4694 8.91523 20.1525 8.46331C18.84 8.0126 18.6694 7.11481 18.0656 5.70831H14.726C14.1252 7.10756 13.9531 8.0126 12.6392 8.46331C11.3267 8.91523 10.4356 8.37873 8.80958 7.73831L6.45146 9.6946C7.22 11.0359 7.87042 11.7778 7.32646 12.8665C6.77958 13.9552 5.68875 14.0978 4 14.5956V17.3615C5.68438 17.8593 6.78104 18.0031 7.325 19.0906C7.87333 20.1878 7.20688 20.9442 6.45 22.2625L8.80958 24.2188C10.424 23.5844 11.3238 23.0419 12.6377 23.4938C13.9502 23.9445 14.1238 24.8447 14.726 26.2488H18.0642C18.665 24.8495 18.8371 23.9469 20.1598 23.4914C21.4635 23.0419 22.3502 23.5771 23.9806 24.2188L26.3402 22.2625C25.5746 20.9249 24.9198 20.1805 25.4638 19.0906C26.0092 18.0043 27.1058 17.8593 28.7917 17.3627ZM16.3958 19.4036C14.115 19.4036 12.2644 17.8702 12.2644 15.9791C12.2644 14.0881 14.115 12.5547 16.3958 12.5547C18.6767 12.5547 20.5273 14.0881 20.5273 15.9791C20.5273 17.8702 18.6767 19.4036 16.3958 19.4036ZM39 24.4846V23.1832C38.1979 22.9464 37.6919 22.8799 37.4352 22.37C37.1785 21.8577 37.4833 21.5109 37.8465 20.8765L36.7352 19.9558C35.9769 20.2554 35.5525 20.5092 34.9342 20.2977C34.3158 20.0863 34.2356 19.6634 33.9513 19.0012H32.3821C32.0992 19.6597 32.0175 20.0851 31.3992 20.2977C30.7808 20.5104 30.3623 20.2579 29.5981 19.9558L28.4869 20.8765C28.8485 21.5085 29.1548 21.8577 28.8981 22.37C28.6415 22.8824 28.1281 22.9488 27.3333 23.1832V24.4846C28.1267 24.7178 28.6415 24.7867 28.8981 25.2978C29.1562 25.8138 28.8427 26.1702 28.4869 26.7913L29.5981 27.7121C30.3579 27.4124 30.7823 27.1586 31.3992 27.3701C32.0175 27.5816 32.0977 28.0057 32.3821 28.6666H33.9513C34.2342 28.0081 34.3158 27.5828 34.9371 27.3689C35.551 27.1574 35.9681 27.41 36.7352 27.7121L37.8465 26.7913C37.4863 26.1618 37.1785 25.8101 37.4352 25.299C37.6919 24.7879 38.2067 24.7178 39 24.4846ZM33.1667 25.444C32.0933 25.444 31.2227 24.7226 31.2227 23.8333C31.2227 22.944 32.0933 22.2226 33.1667 22.2226C34.24 22.2226 35.1106 22.944 35.1106 23.8333C35.1106 24.7226 34.24 25.444 33.1667 25.444ZM27.3333 29.1548V28.1785C26.7325 28.0009 26.3519 27.9513 26.1594 27.5683C25.9669 27.1852 26.1944 26.9242 26.4685 26.4481L25.6344 25.7582C25.0671 25.9829 24.7492 26.1739 24.284 26.0144C23.8188 25.8549 23.7604 25.5383 23.546 25.0416H22.3692C22.1562 25.5359 22.095 25.8549 21.6313 26.0144C21.169 26.1739 20.854 25.9854 20.2808 25.7582L19.4467 26.4481C19.7194 26.923 19.9483 27.184 19.7558 27.5683C19.5633 27.9525 19.1783 28.0021 18.5819 28.1785V29.1548C19.1769 29.33 19.5633 29.382 19.7558 29.765C19.9498 30.1517 19.715 30.4199 19.4467 30.8851L20.2808 31.5751C20.8496 31.3504 21.1675 31.1594 21.6313 31.3189C22.095 31.4784 22.1548 31.7962 22.3692 32.2916H23.546C23.759 31.7974 23.8202 31.4784 24.2854 31.3189H24.2869C24.7463 31.1606 25.0583 31.3491 25.6344 31.5763L26.4685 30.8864C26.1973 30.4139 25.9669 30.1505 26.1594 29.7662C26.3519 29.382 26.7383 29.33 27.3333 29.1548ZM22.9583 29.875C22.1533 29.875 21.5 29.3349 21.5 28.6666C21.5 27.9984 22.1533 27.4583 22.9583 27.4583C23.7633 27.4583 24.4167 27.9984 24.4167 28.6666C24.4167 29.3349 23.7633 29.875 22.9583 29.875Z" fill="#47B1FF"/>
</g>
<path d="M49.93 27.1995C48.768 27.1995 47.7565 26.9545 46.8955 26.4645C46.0415 25.9745 45.3765 25.299 44.9005 24.438C44.4315 23.57 44.197 22.5725 44.197 21.4455C44.197 20.5915 44.3265 19.811 44.5855 19.104C44.8445 18.39 45.2155 17.774 45.6985 17.256C46.1815 16.731 46.7555 16.3285 47.4205 16.0485C48.0855 15.7615 48.8275 15.618 49.6465 15.618C50.4375 15.618 51.0955 15.7475 51.6205 16.0065C52.1525 16.2585 52.5655 16.6085 52.8595 17.0565C53.1535 17.4975 53.3425 18.005 53.4265 18.579H53.794L53.4895 20.1645C53.3985 19.5345 53.192 18.9815 52.87 18.5055C52.548 18.0225 52.128 17.648 51.61 17.382C51.092 17.109 50.4935 16.9725 49.8145 16.9725C49.0025 16.9725 48.2885 17.165 47.6725 17.55C47.0635 17.928 46.5875 18.453 46.2445 19.125C45.9085 19.79 45.7405 20.5635 45.7405 21.4455C45.7405 22.2995 45.912 23.0555 46.255 23.7135C46.605 24.3645 47.0915 24.8755 47.7145 25.2465C48.3445 25.6175 49.0865 25.803 49.9405 25.803C50.8225 25.803 51.582 25.6105 52.219 25.2255C52.856 24.8335 53.3215 24.3085 53.6155 23.6505L55.012 24.27C54.613 25.173 53.9725 25.887 53.0905 26.412C52.2155 26.937 51.162 27.1995 49.93 27.1995ZM53.4895 20.1645V15.8175H55.0015V20.1645H53.4895ZM60.6925 25.698H62.992V27H56.881V25.698H59.1805V11.712H56.881V10.41H60.6925V25.698ZM68.5248 25.698H70.6773V27H64.7448V25.698H67.0128V17.1195H64.7448V15.8175H68.5248V25.698ZM66.7293 11.103H68.6613V13.1085H66.7293V11.103ZM78.1058 27.1995C76.9508 27.1995 75.9498 26.9545 75.1028 26.4645C74.2558 25.9745 73.6013 25.299 73.1393 24.438C72.6773 23.57 72.4463 22.5725 72.4463 21.4455C72.4463 20.3045 72.6773 19.2965 73.1393 18.4215C73.6083 17.5465 74.2593 16.8605 75.0923 16.3635C75.9323 15.8665 76.9088 15.618 78.0218 15.618C79.1418 15.618 80.1113 15.863 80.9303 16.353C81.7493 16.843 82.3793 17.522 82.8203 18.39C83.2613 19.258 83.4818 20.259 83.4818 21.393C83.4818 21.526 83.4783 21.631 83.4713 21.708C83.4713 21.785 83.4643 21.8515 83.4503 21.9075H81.9593C81.9663 21.8235 81.9698 21.7325 81.9698 21.6345C81.9768 21.5295 81.9803 21.4105 81.9803 21.2775C81.9803 20.4445 81.8193 19.706 81.4973 19.062C81.1823 18.411 80.7308 17.9 80.1428 17.529C79.5548 17.158 78.8478 16.9725 78.0218 16.9725C77.2168 16.9725 76.5098 17.165 75.9008 17.55C75.2918 17.928 74.8193 18.453 74.4833 19.125C74.1473 19.79 73.9793 20.5635 73.9793 21.4455C73.9793 22.2995 74.1438 23.0555 74.4728 23.7135C74.8088 24.3645 75.2848 24.8755 75.9008 25.2465C76.5168 25.6175 77.2483 25.803 78.0953 25.803C78.9773 25.803 79.7403 25.5965 80.3843 25.1835C81.0353 24.7635 81.5183 24.193 81.8333 23.472L83.2613 24.0075C82.8483 24.9945 82.1868 25.775 81.2768 26.349C80.3738 26.916 79.3168 27.1995 78.1058 27.1995ZM73.4018 21.9075V20.742H82.9988L83.4398 21.9075H73.4018ZM89.3788 25.698H91.3738V27H85.5673V25.698H87.8668V17.1195H85.5673V15.8175H89.3788V25.698ZM95.8258 25.698V19.8495C95.8258 18.9325 95.6193 18.2115 95.2063 17.6865C94.7933 17.1615 94.1423 16.899 93.2533 16.899C92.5323 16.899 91.8778 17.0775 91.2898 17.4345C90.7018 17.7915 90.2363 18.3095 89.8933 18.9885C89.5503 19.6675 89.3788 20.49 89.3788 21.456L89.0323 19.2195H89.4523C89.5853 18.4565 89.8408 17.809 90.2188 17.277C90.5968 16.738 91.0798 16.3285 91.6678 16.0485C92.2628 15.7615 92.9453 15.618 93.7153 15.618C94.9333 15.618 95.8398 15.9715 96.4348 16.6785C97.0368 17.3785 97.3378 18.369 97.3378 19.65V25.698H99.4903V27H93.8623V25.698H95.8258ZM103.982 24.039C103.982 24.627 104.094 25.0715 104.318 25.3725C104.542 25.6665 104.885 25.8135 105.347 25.8135C105.802 25.8135 106.145 25.663 106.376 25.362C106.607 25.054 106.722 24.613 106.722 24.039V22.9995H108.087V24.0285C108.087 24.7005 107.986 25.2745 107.783 25.7505C107.587 26.2195 107.286 26.58 106.88 26.832C106.474 27.077 105.952 27.1995 105.315 27.1995C104.664 27.1995 104.129 27.0735 103.709 26.8215C103.289 26.5625 102.977 26.1985 102.774 25.7295C102.571 25.2605 102.47 24.697 102.47 24.039L102.48 17.1195H100.485V15.8175H102.48V12.9825H103.992V15.8175H107.94L107.93 17.1195H103.992L103.982 24.039ZM115.863 27.1995C114.701 27.1995 113.689 26.9545 112.828 26.4645C111.974 25.9745 111.309 25.299 110.833 24.438C110.364 23.57 110.13 22.5725 110.13 21.4455C110.13 20.5915 110.259 19.811 110.518 19.104C110.777 18.39 111.148 17.774 111.631 17.256C112.114 16.731 112.688 16.3285 113.353 16.0485C114.018 15.7615 114.76 15.618 115.579 15.618C116.37 15.618 117.028 15.7475 117.553 16.0065C118.085 16.2585 118.498 16.6085 118.792 17.0565C119.086 17.4975 119.275 18.005 119.359 18.579H119.727L119.422 20.1645C119.331 19.5345 119.125 18.9815 118.803 18.5055C118.481 18.0225 118.061 17.648 117.543 17.382C117.025 17.109 116.426 16.9725 115.747 16.9725C114.935 16.9725 114.221 17.165 113.605 17.55C112.996 17.928 112.52 18.453 112.177 19.125C111.841 19.79 111.673 20.5635 111.673 21.4455C111.673 22.2995 111.845 23.0555 112.188 23.7135C112.538 24.3645 113.024 24.8755 113.647 25.2465C114.277 25.6175 115.019 25.803 115.873 25.803C116.755 25.803 117.515 25.6105 118.152 25.2255C118.789 24.8335 119.254 24.3085 119.548 23.6505L120.945 24.27C120.546 25.173 119.905 25.887 119.023 26.412C118.148 26.937 117.095 27.1995 115.863 27.1995ZM119.422 20.1645V15.8175H120.934V20.1645H119.422ZM129.04 27.1995C127.878 27.1995 126.86 26.9545 125.985 26.4645C125.11 25.9675 124.427 25.2885 123.937 24.4275C123.447 23.5665 123.202 22.5725 123.202 21.4455C123.202 20.3115 123.447 19.307 123.937 18.432C124.427 17.55 125.11 16.8605 125.985 16.3635C126.86 15.8665 127.878 15.618 129.04 15.618C130.202 15.618 131.221 15.8665 132.096 16.3635C132.971 16.8605 133.653 17.55 134.143 18.432C134.633 19.307 134.878 20.3115 134.878 21.4455C134.878 22.5725 134.633 23.5665 134.143 24.4275C133.653 25.2885 132.971 25.9675 132.096 26.4645C131.221 26.9545 130.202 27.1995 129.04 27.1995ZM129.04 25.803C129.88 25.803 130.619 25.621 131.256 25.257C131.9 24.893 132.4 24.3855 132.757 23.7345C133.121 23.0765 133.303 22.3135 133.303 21.4455C133.303 20.5705 133.121 19.8005 132.757 19.1355C132.4 18.4705 131.9 17.9525 131.256 17.5815C130.619 17.2035 129.88 17.0145 129.04 17.0145C128.2 17.0145 127.458 17.2035 126.814 17.5815C126.177 17.9525 125.677 18.4705 125.313 19.1355C124.956 19.8005 124.777 20.5705 124.777 21.4455C124.777 22.3135 124.956 23.0765 125.313 23.7345C125.677 24.3855 126.177 24.893 126.814 25.257C127.458 25.621 128.2 25.803 129.04 25.803ZM140.853 25.698H142.848V27H137.042V25.698H139.341V17.1195H137.042V15.8175H140.853V25.698ZM147.3 25.698V19.8495C147.3 18.9325 147.094 18.2115 146.681 17.6865C146.268 17.1615 145.617 16.899 144.728 16.899C144.007 16.899 143.352 17.0775 142.764 17.4345C142.176 17.7915 141.711 18.3095 141.368 18.9885C141.025 19.6675 140.853 20.49 140.853 21.456L140.507 19.2195H140.927C141.06 18.4565 141.315 17.809 141.693 17.277C142.071 16.738 142.554 16.3285 143.142 16.0485C143.737 15.7615 144.42 15.618 145.19 15.618C146.408 15.618 147.314 15.9715 147.909 16.6785C148.511 17.3785 148.812 18.369 148.812 19.65V25.698H150.965V27H145.337V25.698H147.3ZM156.275 25.698H158.27V27H152.464V25.698H154.763V17.1195H152.464V15.8175H156.275V25.698ZM162.722 25.698V19.8495C162.722 18.9325 162.516 18.2115 162.103 17.6865C161.69 17.1615 161.039 16.899 160.15 16.899C159.429 16.899 158.774 17.0775 158.186 17.4345C157.598 17.7915 157.133 18.3095 156.79 18.9885C156.447 19.6675 156.275 20.49 156.275 21.456L155.929 19.2195H156.349C156.482 18.4565 156.737 17.809 157.115 17.277C157.493 16.738 157.976 16.3285 158.564 16.0485C159.159 15.7615 159.842 15.618 160.612 15.618C161.83 15.618 162.736 15.9715 163.331 16.6785C163.933 17.3785 164.234 18.369 164.234 19.65V25.698H166.387V27H160.759V25.698H162.722ZM173.652 27.1995C172.497 27.1995 171.496 26.9545 170.649 26.4645C169.802 25.9745 169.147 25.299 168.685 24.438C168.223 23.57 167.992 22.5725 167.992 21.4455C167.992 20.3045 168.223 19.2965 168.685 18.4215C169.154 17.5465 169.805 16.8605 170.638 16.3635C171.478 15.8665 172.455 15.618 173.568 15.618C174.688 15.618 175.657 15.863 176.476 16.353C177.295 16.843 177.925 17.522 178.366 18.39C178.807 19.258 179.028 20.259 179.028 21.393C179.028 21.526 179.024 21.631 179.017 21.708C179.017 21.785 179.01 21.8515 178.996 21.9075H177.505C177.512 21.8235 177.516 21.7325 177.516 21.6345C177.523 21.5295 177.526 21.4105 177.526 21.2775C177.526 20.4445 177.365 19.706 177.043 19.062C176.728 18.411 176.277 17.9 175.689 17.529C175.101 17.158 174.394 16.9725 173.568 16.9725C172.763 16.9725 172.056 17.165 171.447 17.55C170.838 17.928 170.365 18.453 170.029 19.125C169.693 19.79 169.525 20.5635 169.525 21.4455C169.525 22.2995 169.69 23.0555 170.019 23.7135C170.355 24.3645 170.831 24.8755 171.447 25.2465C172.063 25.6175 172.794 25.803 173.641 25.803C174.523 25.803 175.286 25.5965 175.93 25.1835C176.581 24.7635 177.064 24.193 177.379 23.472L178.807 24.0075C178.394 24.9945 177.733 25.775 176.823 26.349C175.92 26.916 174.863 27.1995 173.652 27.1995ZM168.948 21.9075V20.742H178.545L178.986 21.9075H168.948ZM187.025 27.1995C185.863 27.1995 184.851 26.9545 183.99 26.4645C183.136 25.9745 182.471 25.299 181.995 24.438C181.526 23.57 181.292 22.5725 181.292 21.4455C181.292 20.5915 181.421 19.811 181.68 19.104C181.939 18.39 182.31 17.774 182.793 17.256C183.276 16.731 183.85 16.3285 184.515 16.0485C185.18 15.7615 185.922 15.618 186.741 15.618C187.532 15.618 188.19 15.7475 188.715 16.0065C189.247 16.2585 189.66 16.6085 189.954 17.0565C190.248 17.4975 190.437 18.005 190.521 18.579H190.889L190.584 20.1645C190.493 19.5345 190.287 18.9815 189.965 18.5055C189.643 18.0225 189.223 17.648 188.705 17.382C188.187 17.109 187.588 16.9725 186.909 16.9725C186.097 16.9725 185.383 17.165 184.767 17.55C184.158 17.928 183.682 18.453 183.339 19.125C183.003 19.79 182.835 20.5635 182.835 21.4455C182.835 22.2995 183.007 23.0555 183.35 23.7135C183.7 24.3645 184.186 24.8755 184.809 25.2465C185.439 25.6175 186.181 25.803 187.035 25.803C187.917 25.803 188.677 25.6105 189.314 25.2255C189.951 24.8335 190.416 24.3085 190.71 23.6505L192.107 24.27C191.708 25.173 191.067 25.887 190.185 26.412C189.31 26.937 188.257 27.1995 187.025 27.1995ZM190.584 20.1645V15.8175H192.096V20.1645H190.584ZM197.231 24.039C197.231 24.627 197.343 25.0715 197.567 25.3725C197.791 25.6665 198.134 25.8135 198.596 25.8135C199.051 25.8135 199.394 25.663 199.625 25.362C199.856 25.054 199.971 24.613 199.971 24.039V22.9995H201.336V24.0285C201.336 24.7005 201.235 25.2745 201.032 25.7505C200.836 26.2195 200.535 26.58 200.129 26.832C199.723 27.077 199.201 27.1995 198.564 27.1995C197.913 27.1995 197.378 27.0735 196.958 26.8215C196.538 26.5625 196.226 26.1985 196.023 25.7295C195.82 25.2605 195.719 24.697 195.719 24.039L195.729 17.1195H193.734V15.8175H195.729V12.9825H197.241V15.8175H201.189L201.179 17.1195H197.241L197.231 24.039Z" fill="#212529"/>
<defs>
<clipPath id="clip0_42_201">
<rect width="35" height="29" fill="white" transform="translate(4 4.5)"/>
</clipPath>
</defs>
</svg>
